<svg height="512pt" viewBox="-61 0 512 512" width="512pt" xmlns="http://www.w3.org/2000/svg"><path d="m195 61c-74.3125 0-134.949219 59.988281-134.949219 135 0 74.785156 60.402344 135 134.949219 135 74.3125 0 134.949219-59.988281 134.949219-135 0-74.785156-60.398438-135-134.949219-135zm0 239.800781c-2.140625 0-9.996094-4.667969-17.773438-25.414062-2.242187-5.980469-4.1875-12.558594-5.835937-19.585938h47.21875c-1.648437 7.027344-3.59375 13.605469-5.835937 19.585938-7.777344 20.746093-15.632813 25.414062-17.773438 25.414062zm-28.511719-74.800781c-.972656-9.632812-1.488281-19.691406-1.488281-30s.515625-20.367188 1.488281-30h57.023438c.972656 9.632812 1.488281 19.691406 1.488281 30s-.515625 20.367188-1.488281 30zm-72.101562-60.199219h41.972656c-.890625 9.726563-1.359375 19.976563-1.359375 30.199219s.46875 20.269531 1.359375 30h-41.972656c-5.792969-19.546875-5.792969-40.65625 0-60.199219zm100.613281-74.800781c2.140625 0 9.996094 4.667969 17.773438 25.414062 2.242187 5.976563 4.1875 12.558594 5.835937 19.585938h-47.21875c1.648437-7.027344 3.59375-13.609375 5.835937-19.585938 7.777344-20.746093 15.632813-25.414062 17.773438-25.414062zm58.640625 75h41.972656c5.792969 19.546875 5.792969 40.457031 0 60h-41.972656c.890625-9.730469 1.359375-19.777344 1.359375-30s-.46875-20.269531-1.359375-30zm27.550781-30h-31.882812c-2.441406-12.027344-5.828125-24.167969-10.601563-35.523438 11.21875 5.140626 21.554688 12.289063 30.542969 21.269532 4.46875 4.46875 8.449219 9.242187 11.941406 14.253906zm-129.898437-35.523438c-4.785157 11.375-8.164063 23.519532-10.601563 35.523438h-31.882812c3.492187-5.011719 7.46875-9.78125 11.9375-14.25 8.992187-8.984375 19.324218-16.132812 30.546875-21.273438zm-42.484375 155.523438h31.882812c2.441406 12.027344 5.828125 24.167969 10.601563 35.523438-11.21875-5.140626-21.554688-12.289063-30.542969-21.269532-4.46875-4.46875-8.449219-9.242187-11.941406-14.253906zm129.898437 35.324219c4.785157-11.375 8.164063-23.523438 10.601563-35.523438h31.882812c-3.492187 5.011719-7.46875 9.78125-11.9375 14.25-8.992187 8.984375-19.324218 16.132813-30.546875 21.273438zm0 0"/><path d="m195 0c-107.523438 0-195 87.925781-195 196 0 43.382812 13.941406 84.441406 40.316406 118.75l124.777344 167.25h-90.09375c-8.285156 0-15 6.714844-15 15s6.714844 15 15 15h240c8.285156 0 15-6.714844 15-15s-6.714844-15-15-15h-90.09375l127.550781-170.949219c.03125-.039062.0625-.082031.089844-.121093 24.503906-33.535157 37.453125-73.277344 37.453125-114.929688 0-108.074219-87.476562-196-195-196zm133.363281 293.175781-133.363281 178.738281c-.082031-.109374-130.753906-175.261718-130.839844-175.371093-22.347656-29.035157-34.160156-63.800781-34.160156-100.542969 0-91.53125 74.019531-166 165-166s165 74.46875 165 166c0 35.222656-10.9375 68.824219-31.636719 97.175781zm0 0"/></svg>