<svg height="512pt" viewBox="0 -46 512 512" width="512pt" xmlns="http://www.w3.org/2000/svg"><path d="m511.984375 14.679688c-.164063-7.964844-6.566406-14.472657-14.632813-14.6601568-.117187-.0039062-.234374-.0195312-.351562-.0195312h-331c-.113281 0-.222656.015625-.335938.015625-8.027343.179687-14.46875 6.644531-14.648437 14.644531 0 .113282-.015625.226563-.015625.339844v165h-136c-8.027344 0-14.8125 6.433594-14.984375 14.679688 0 .109374-.015625.210937-.015625.320312v210c0 8.285156 6.714844 15 15 15h331c8.285156 0 15-6.714844 15-15v-165h136c8.285156 0 15-6.714844 15-15v-210c0-.109375-.015625-.210938-.015625-.320312zm-180.953125 130.078124-126.230469-114.757812h253.226563zm-165.03125 95.242188h108.199219l-93.230469 84.757812-126.996094-114.757812h97.027344v15c0 8.285156 6.714844 15 15 15zm165 150h-301v-161.230469l79.015625 71.402344-37.105469 33.730469c-6.128906 5.570312-6.582031 15.058594-1.007812 21.1875 5.570312 6.132812 15.058594 6.582031 21.1875 1.007812l39.292968-35.71875 39.5625 35.75c2.855469 2.582032 6.453126 3.871094 10.054688 3.871094 3.613281 0 7.230469-1.300781 10.089844-3.902344l39.410156-35.824218 39.410156 35.824218c6.128906 5.574219 15.617188 5.121094 21.1875-1.007812 5.574219-6.128906 5.121094-15.617188-1.007812-21.1875l-37.289063-33.902344 66-60h12.199219zm-150-180v-161.09375l78.199219 71.09375-37.289063 33.902344c-6.128906 5.570312-6.582031 15.058594-1.007812 21.1875 5.574218 6.132812 15.058594 6.582031 21.1875 1.007812l39.410156-35.824218 39.410156 35.824218c5.707032 5.191406 14.421875 5.203125 20.144532.03125l39.5625-35.75 39.292968 35.71875c6.128906 5.574219 15.617188 5.121094 21.1875-1.007812 5.574219-6.128906 5.121094-15.617188-1.007812-21.1875l-37.105469-33.730469 79.015625-71.402344v161.230469zm0 0"/><path d="m497 270h-61c-8.285156 0-15 6.714844-15 15s6.714844 15 15 15h61c8.285156 0 15-6.714844 15-15s-6.714844-15-15-15zm0 0"/><path d="m482 345c0-8.285156-6.714844-15-15-15h-61c-8.285156 0-15 6.714844-15 15s6.714844 15 15 15h61c8.285156 0 15-6.714844 15-15zm0 0"/><path d="m497 390h-61c-8.285156 0-15 6.714844-15 15s6.714844 15 15 15h61c8.285156 0 15-6.714844 15-15s-6.714844-15-15-15zm0 0"/><path d="m15 30h61c8.285156 0 15-6.714844 15-15s-6.714844-15-15-15h-61c-8.285156 0-15 6.714844-15 15s6.714844 15 15 15zm0 0"/><path d="m30 75c0 8.285156 6.714844 15 15 15h61c8.285156 0 15-6.714844 15-15s-6.714844-15-15-15h-61c-8.285156 0-15 6.714844-15 15zm0 0"/><path d="m15 150h61c8.285156 0 15-6.714844 15-15s-6.714844-15-15-15h-61c-8.285156 0-15 6.714844-15 15s6.714844 15 15 15zm0 0"/></svg>