<svg height="512pt" viewBox="0 0 512 512" width="512pt" xmlns="http://www.w3.org/2000/svg"><path d="m316 211c0-33.085938-26.914062-60-60-60s-60 26.914062-60 60 26.914062 60 60 60 60-26.914062 60-60zm-60 30c-16.542969 0-30-13.457031-30-30s13.457031-30 30-30 30 13.457031 30 30-13.457031 30-30 30zm0 0"/><path d="m452 392c-11.109375 0-21.519531 3.046875-30.453125 8.332031l-38.804687-38.804687c23.871093-28.625 38.257812-65.425782 38.257812-105.527344s-14.386719-76.902344-38.261719-105.527344l38.808594-38.804687c8.933594 5.285156 19.34375 8.332031 30.453125 8.332031 33.085938 0 60-26.914062 60-60s-26.914062-60-60-60-60 26.914062-60 60c0 11.109375 3.046875 21.519531 8.332031 30.453125l-38.804687 38.808594c-28.625-23.875-65.425782-38.261719-105.527344-38.261719s-76.902344 14.386719-105.527344 38.261719l-38.804687-38.808594c5.285156-8.933594 8.332031-19.34375 8.332031-30.453125 0-33.085938-26.914062-60-60-60s-60 26.914062-60 60 26.914062 60 60 60c11.109375 0 21.519531-3.046875 30.453125-8.332031l38.808594 38.804687c-23.875 28.625-38.261719 65.425782-38.261719 105.527344s14.386719 76.902344 38.261719 105.527344l-38.808594 38.804687c-8.933594-5.285156-19.34375-8.332031-30.453125-8.332031-33.085938 0-60 26.914062-60 60s26.914062 60 60 60 60-26.914062 60-60c0-11.109375-3.046875-21.519531-8.332031-30.453125l38.804687-38.808594c28.691406 23.933594 65.527344 38.261719 105.527344 38.261719 37.566406 0 74.953125-12.761719 105.527344-38.261719l38.808594 38.808594c-5.289063 8.933594-8.335938 19.34375-8.335938 30.453125 0 33.085938 26.914062 60 60 60s60-26.914062 60-60-26.914062-60-60-60zm0-362c16.542969 0 30 13.457031 30 30s-13.457031 30-30 30-30-13.457031-30-30 13.457031-30 30-30zm-422 30c0-16.542969 13.457031-30 30-30s30 13.457031 30 30-13.457031 30-30 30-30-13.457031-30-30zm226 61c74.4375 0 135 60.5625 135 135 0 39.945312-17.445312 75.886719-45.109375 100.625-2.289063-47.601562-41.730469-85.625-89.890625-85.625s-87.601562 38.023438-89.890625 85.625c-27.664063-24.738281-45.109375-60.679688-45.109375-100.625 0-74.4375 60.5625-135 135-135zm-196 361c-16.542969 0-30-13.457031-30-30s13.457031-30 30-30 30 13.457031 30 30-13.457031 30-30 30zm136-105.089844v-15.910156c0-33.085938 26.914062-60 60-60s60 26.914062 60 60v15.910156c-18.085938 9.011719-38.460938 14.089844-60 14.089844s-41.914062-5.078125-60-14.089844zm256 105.089844c-16.542969 0-30-13.457031-30-30s13.457031-30 30-30 30 13.457031 30 30-13.457031 30-30 30zm0 0"/></svg>